<svg xmlns="http://www.w3.org/2000/svg" width="1240" height="720"><path d="M577,422L644,321L544,357Z" fill="#78aad0" stroke="#78aad0" stroke-width="1.51"/><path d="M577,422L729,356L644,321Z" fill="#6da5cd" stroke="#6da5cd" stroke-width="1.51"/><path d="M544,357L462,457L577,422Z" fill="#76a7ce" stroke="#76a7ce" stroke-width="1.51"/><path d="M477,294L477,349L544,357Z" fill="#90b4d6" stroke="#90b4d6" stroke-width="1.51"/><path d="M536,225L477,294L544,357Z" fill="#98b7d8" stroke="#98b7d8" stroke-width="1.51"/><path d="M729,356L685,245L644,321Z" fill="#79a9d0" stroke="#79a9d0" stroke-width="1.51"/><path d="M536,225L544,357L644,321Z" fill="#8db2d5" stroke="#8db2d5" stroke-width="1.51"/><path d="M577,422L697,492L729,356Z" fill="#599cc7" stroke="#599cc7" stroke-width="1.51"/><path d="M563,202L536,225L644,321Z" fill="#99b8d8" stroke="#99b8d8" stroke-width="1.51"/><path d="M477,349L462,457L544,357Z" fill="#82add1" stroke="#82add1" stroke-width="1.51"/><path d="M577,422L585,543L697,492Z" fill="#5496c5" stroke="#5496c5" stroke-width="1.51"/><path d="M403,422L462,457L477,349Z" fill="#84add2" stroke="#84add2" stroke-width="1.51"/><path d="M636,198L563,202L644,321Z" fill="#96b7d7" stroke="#96b7d7" stroke-width="1.51"/><path d="M685,245L636,198L644,321Z" fill="#8cb1d5" stroke="#8cb1d5" stroke-width="1.51"/><path d="M462,457L585,543L577,422Z" fill="#659dc9" stroke="#659dc9" stroke-width="1.51"/><path d="M697,492L768,455L729,356Z" fill="#4895c4" stroke="#4895c4" stroke-width="1.51"/><path d="M697,492L704,537L768,455Z" fill="#3c8cbf" stroke="#3c8cbf" stroke-width="1.51"/><path d="M585,543L704,537L697,492Z" fill="#468cbf" stroke="#468cbf" stroke-width="1.51"/><path d="M477,294L405,355L477,349Z" fill="#97b7d8" stroke="#97b7d8" stroke-width="1.51"/><path d="M359,303L405,355L477,294Z" fill="#a1bbda" stroke="#a1bbda" stroke-width="1.51"/><path d="M405,355L403,422L477,349Z" fill="#8fb3d5" stroke="#8fb3d5" stroke-width="1.51"/><path d="M462,457L451,519L585,543Z" fill="#689ac7" stroke="#689ac7" stroke-width="1.51"/><path d="M729,356L763,232L685,245Z" fill="#7ba9d0" stroke="#7ba9d0" stroke-width="1.51"/><path d="M685,245L739,169L636,198Z" fill="#94b5d6" stroke="#94b5d6" stroke-width="1.51"/><path d="M853,281L763,232L729,356Z" fill="#6fa4cc" stroke="#6fa4cc" stroke-width="1.51"/><path d="M403,422L451,519L462,457Z" fill="#77a5cd" stroke="#77a5cd" stroke-width="1.51"/><path d="M768,455L823,394L729,356Z" fill="#4b96c4" stroke="#4b96c4" stroke-width="1.51"/><path d="M893,452L823,394L768,455Z" fill="#388cbf" stroke="#388cbf" stroke-width="1.51"/><path d="M763,232L739,169L685,245Z" fill="#8bb0d3" stroke="#8bb0d3" stroke-width="1.51"/><path d="M540,42L436,159L563,202Z" fill="#bbc9e2" stroke="#bbc9e2" stroke-width="1.51"/><path d="M405,355L303,370L403,422Z" fill="#96b6d6" stroke="#96b6d6" stroke-width="1.51"/><path d="M404,180L359,303L477,294Z" fill="#b0c1dd" stroke="#b0c1dd" stroke-width="1.51"/><path d="M436,159L477,294L536,225Z" fill="#aec1dd" stroke="#aec1dd" stroke-width="1.51"/><path d="M704,537L763,565L768,455Z" fill="#3286bc" stroke="#3286bc" stroke-width="1.51"/><path d="M736,655L763,565L704,537Z" fill="#307db1" stroke="#307db1" stroke-width="1.51"/><path d="M823,394L853,281L729,356Z" fill="#5d9bc7" stroke="#5d9bc7" stroke-width="1.51"/><path d="M763,232L861,170L739,169Z" fill="#89add2" stroke="#89add2" stroke-width="1.51"/><path d="M563,202L436,159L536,225Z" fill="#b1c2de" stroke="#b1c2de" stroke-width="1.51"/><path d="M540,42L563,202L636,198Z" fill="#afc3de" stroke="#afc3de" stroke-width="1.51"/><path d="M451,519L536,679L585,543Z" fill="#5d8cbb" stroke="#5d8cbb" stroke-width="1.51"/><path d="M585,543L653,659L704,537Z" fill="#4585b6" stroke="#4585b6" stroke-width="1.51"/><path d="M403,422L402,546L451,519Z" fill="#77a1cb" stroke="#77a1cb" stroke-width="1.51"/><path d="M275,539L402,546L403,422Z" fill="#7fa3cd" stroke="#7fa3cd" stroke-width="1.51"/><path d="M436,159L404,180L477,294Z" fill="#b8c5e0" stroke="#b8c5e0" stroke-width="1.51"/><path d="M536,679L653,659L585,543Z" fill="#4d83af" stroke="#4d83af" stroke-width="1.51"/><path d="M823,394L927,330L853,281Z" fill="#5a96c4" stroke="#5a96c4" stroke-width="1.51"/><path d="M860,582L893,452L768,455Z" fill="#2680b9" stroke="#2680b9" stroke-width="1.51"/><path d="M359,303L303,370L405,355Z" fill="#a2bcda" stroke="#a2bcda" stroke-width="1.51"/><path d="M303,252L303,370L359,303Z" fill="#b0c1de" stroke="#b0c1de" stroke-width="1.51"/><path d="M653,659L736,655L704,537Z" fill="#387cac" stroke="#387cac" stroke-width="1.51"/><path d="M763,565L860,582L768,455Z" fill="#237eb8" stroke="#237eb8" stroke-width="1.51"/><path d="M893,452L918,419L823,394Z" fill="#3989bd" stroke="#3989bd" stroke-width="1.51"/><path d="M438,656L536,679L451,519Z" fill="#638bb6" stroke="#638bb6" stroke-width="1.51"/><path d="M653,659L688,711L736,655Z" fill="#35729c" stroke="#35729c" stroke-width="1.51"/><path d="M404,180L303,252L359,303Z" fill="#bbc7e0" stroke="#bbc7e0" stroke-width="1.51"/><path d="M853,281L861,170L763,232Z" fill="#7da5ce" stroke="#7da5ce" stroke-width="1.51"/><path d="M662,39L540,42L636,198Z" fill="#b3c8e1" stroke="#b3c8e1" stroke-width="1.51"/><path d="M946,225L861,170L853,281Z" fill="#799fca" stroke="#799fca" stroke-width="1.51"/><path d="M918,419L927,330L823,394Z" fill="#488dc0" stroke="#488dc0" stroke-width="1.51"/><path d="M861,170L794,103L739,169Z" fill="#91b1d4" stroke="#91b1d4" stroke-width="1.51"/><path d="M662,39L636,198L739,169Z" fill="#a3bddb" stroke="#a3bddb" stroke-width="1.51"/><path d="M436,159L368,109L404,180Z" fill="#c9cee4" stroke="#c9cee4" stroke-width="1.51"/><path d="M404,180L296,201L303,252Z" fill="#c6cce3" stroke="#c6cce3" stroke-width="1.51"/><path d="M397,663L438,656L402,546Z" fill="#6d8eb7" stroke="#6d8eb7" stroke-width="1.51"/><path d="M402,546L438,656L451,519Z" fill="#6e93c0" stroke="#6e93c0" stroke-width="1.51"/><path d="M794,103L662,39L739,169Z" fill="#a0bdda" stroke="#a0bdda" stroke-width="1.51"/><path d="M828,645L860,582L763,565Z" fill="#1d74ab" stroke="#1d74ab" stroke-width="1.51"/><path d="M893,452L1029,460L918,419Z" fill="#2880b6" stroke="#2880b6" stroke-width="1.51"/><path d="M540,42L460,57L436,159Z" fill="#c8d1e6" stroke="#c8d1e6" stroke-width="1.51"/><path d="M303,370L261,417L403,422Z" fill="#98b6d7" stroke="#98b6d7" stroke-width="1.51"/><path d="M228,345L261,417L303,370Z" fill="#a4bddb" stroke="#a4bddb" stroke-width="1.51"/><path d="M460,57L368,109L436,159Z" fill="#ccd2e7" stroke="#ccd2e7" stroke-width="1.51"/><path d="M368,109L296,201L404,180Z" fill="#cdd0e6" stroke="#cdd0e6" stroke-width="1.51"/><path d="M303,252L228,345L303,370Z" fill="#b1c3de" stroke="#b1c3de" stroke-width="1.51"/><path d="M736,655L828,645L763,565Z" fill="#2275a8" stroke="#2275a8" stroke-width="1.51"/><path d="M544,719L688,711L653,659Z" fill="#3f7298" stroke="#3f7298" stroke-width="1.51"/><path d="M730,735L828,645L736,655Z" fill="#226b98" stroke="#226b98" stroke-width="1.51"/><path d="M536,679L544,719L653,659Z" fill="#4a779e" stroke="#4a779e" stroke-width="1.51"/><path d="M446,731L544,719L536,679Z" fill="#547699" stroke="#547699" stroke-width="1.51"/><path d="M438,656L446,731L536,679Z" fill="#5c7da0" stroke="#5c7da0" stroke-width="1.51"/><path d="M275,539L397,663L402,546Z" fill="#7796c1" stroke="#7796c1" stroke-width="1.51"/><path d="M861,170L829,48L794,103Z" fill="#95b3d6" stroke="#95b3d6" stroke-width="1.51"/><path d="M927,330L946,225L853,281Z" fill="#6997c6" stroke="#6997c6" stroke-width="1.51"/><path d="M1022,330L946,225L927,330Z" fill="#6190c0" stroke="#6190c0" stroke-width="1.51"/><path d="M261,417L275,539L403,422Z" fill="#8baed2" stroke="#8baed2" stroke-width="1.51"/><path d="M349,-15L314,55L368,109Z" fill="#dedded" stroke="#dedded" stroke-width="1.51"/><path d="M540,42L471,16L460,57Z" fill="#cbd5e8" stroke="#cbd5e8" stroke-width="1.51"/><path d="M533,-26L471,16L540,42Z" fill="#cbd6e8" stroke="#cbd6e8" stroke-width="1.51"/><path d="M171,287L228,345L303,252Z" fill="#bcc9e2" stroke="#bcc9e2" stroke-width="1.51"/><path d="M261,417L195,457L275,539Z" fill="#91b0d4" stroke="#91b0d4" stroke-width="1.51"/><path d="M931,633L937,548L860,582Z" fill="#0b6ca7" stroke="#0b6ca7" stroke-width="1.51"/><path d="M860,582L937,548L893,452Z" fill="#1575b3" stroke="#1575b3" stroke-width="1.51"/><path d="M918,419L1022,330L927,330Z" fill="#4b8abc" stroke="#4b8abc" stroke-width="1.51"/><path d="M688,711L730,735L736,655Z" fill="#2d6a93" stroke="#2d6a93" stroke-width="1.51"/><path d="M828,645L931,633L860,582Z" fill="#136ca3" stroke="#136ca3" stroke-width="1.51"/><path d="M706,843L730,735L688,711Z" fill="#2e678d" stroke="#2e678d" stroke-width="1.51"/><path d="M662,39L533,-26L540,42Z" fill="#c0d0e6" stroke="#c0d0e6" stroke-width="1.51"/><path d="M794,103L829,48L662,39Z" fill="#a1bedb" stroke="#a1bedb" stroke-width="1.51"/><path d="M956,131L829,48L861,170Z" fill="#90acd2" stroke="#90acd2" stroke-width="1.51"/><path d="M544,719L543,811L688,711Z" fill="#447092" stroke="#447092" stroke-width="1.51"/><path d="M397,663L446,731L438,656Z" fill="#6381a4" stroke="#6381a4" stroke-width="1.51"/><path d="M346,704L446,731L397,663Z" fill="#6680a0" stroke="#6680a0" stroke-width="1.51"/><path d="M655,-80L533,-26L662,39Z" fill="#bccfe5" stroke="#bccfe5" stroke-width="1.51"/><path d="M228,345L195,457L261,417Z" fill="#a0bcda" stroke="#a0bcda" stroke-width="1.51"/><path d="M286,679L346,704L397,663Z" fill="#6f86a7" stroke="#6f86a7" stroke-width="1.51"/><path d="M1029,460L1022,330L918,419Z" fill="#3a81b5" stroke="#3a81b5" stroke-width="1.51"/><path d="M946,225L956,131L861,170Z" fill="#83a0cc" stroke="#83a0cc" stroke-width="1.51"/><path d="M937,548L1029,460L893,452Z" fill="#1b78b2" stroke="#1b78b2" stroke-width="1.51"/><path d="M885,736L931,633L828,645Z" fill="#0f6194" stroke="#0f6194" stroke-width="1.51"/><path d="M1018,111L956,131L1054,162Z" fill="#869ec5" stroke="#869ec5" stroke-width="1.51"/><path d="M286,679L397,663L275,539Z" fill="#7a93b9" stroke="#7a93b9" stroke-width="1.51"/><path d="M829,48L704,-47L662,39Z" fill="#aac5df" stroke="#aac5df" stroke-width="1.51"/><path d="M764,-60L704,-47L829,48Z" fill="#a7c3de" stroke="#a7c3de" stroke-width="1.51"/><path d="M296,201L171,287L303,252Z" fill="#c6cde4" stroke="#c6cde4" stroke-width="1.51"/><path d="M368,109L314,55L296,201Z" fill="#d7d7e9" stroke="#d7d7e9" stroke-width="1.51"/><path d="M349,-15L368,109L460,57Z" fill="#d7daeb" stroke="#d7daeb" stroke-width="1.51"/><path d="M349,-15L460,57L471,16Z" fill="#d6dbec" stroke="#d6dbec" stroke-width="1.51"/><path d="M1038,521L1029,460L937,548Z" fill="#1370aa" stroke="#1370aa" stroke-width="1.51"/><path d="M228,345L131,341L195,457Z" fill="#abc3de" stroke="#abc3de" stroke-width="1.51"/><path d="M177,141L171,287L296,201Z" fill="#d2d4e8" stroke="#d2d4e8" stroke-width="1.51"/><path d="M223,615L286,679L275,539Z" fill="#8199be" stroke="#8199be" stroke-width="1.51"/><path d="M446,731L543,811L544,719Z" fill="#527495" stroke="#527495" stroke-width="1.51"/><path d="M500,853L543,811L446,731Z" fill="#547596" stroke="#547596" stroke-width="1.51"/><path d="M395,817L446,731L346,704Z" fill="#637b99" stroke="#637b99" stroke-width="1.51"/><path d="M704,-47L655,-80L662,39Z" fill="#b4cbe3" stroke="#b4cbe3" stroke-width="1.51"/><path d="M443,-102L349,-15L471,16Z" fill="#d9ddec" stroke="#d9ddec" stroke-width="1.51"/><path d="M286,679L307,708L346,704Z" fill="#7185a3" stroke="#7185a3" stroke-width="1.51"/><path d="M169,814L282,844L307,708Z" fill="#74849e" stroke="#74849e" stroke-width="1.51"/><path d="M180,592L223,615L275,539Z" fill="#869fc6" stroke="#869fc6" stroke-width="1.51"/><path d="M704,-47L784,-101L655,-80Z" fill="#aec8e1" stroke="#aec8e1" stroke-width="1.51"/><path d="M838,-36L764,-60L829,48Z" fill="#a3bedc" stroke="#a3bedc" stroke-width="1.51"/><path d="M443,-102L471,16L533,-26Z" fill="#d0d9eb" stroke="#d0d9eb" stroke-width="1.51"/><path d="M225,60L177,141L296,201Z" fill="#dedcec" stroke="#dedcec" stroke-width="1.51"/><path d="M1119,366L1069,264L1022,330Z" fill="#5586b2" stroke="#5586b2" stroke-width="1.51"/><path d="M931,633L1038,521L937,548Z" fill="#0569a6" stroke="#0569a6" stroke-width="1.51"/><path d="M956,131L977,93L829,48Z" fill="#91aad2" stroke="#91aad2" stroke-width="1.51"/><path d="M1018,111L977,93L956,131Z" fill="#8aa3c9" stroke="#8aa3c9" stroke-width="1.51"/><path d="M931,633L1080,681L1038,521Z" fill="#046198" stroke="#046198" stroke-width="1.51"/><path d="M730,735L885,736L828,645Z" fill="#18618d" stroke="#18618d" stroke-width="1.51"/><path d="M832,800L885,736L730,735Z" fill="#175e88" stroke="#175e88" stroke-width="1.51"/><path d="M956,-40L838,-36L829,48Z" fill="#9eb7d9" stroke="#9eb7d9" stroke-width="1.51"/><path d="M171,287L131,341L228,345Z" fill="#bacae2" stroke="#bacae2" stroke-width="1.51"/><path d="M195,457L180,592L275,539Z" fill="#8ca7d0" stroke="#8ca7d0" stroke-width="1.51"/><path d="M110,303L131,341L171,287Z" fill="#c0cee5" stroke="#c0cee5" stroke-width="1.51"/><path d="M1022,330L1069,264L946,225Z" fill="#668fbc" stroke="#668fbc" stroke-width="1.51"/><path d="M1119,366L1022,330L1029,460Z" fill="#3f7faf" stroke="#3f7faf" stroke-width="1.51"/><path d="M149,768L307,708L286,679Z" fill="#74859f" stroke="#74859f" stroke-width="1.51"/><path d="M110,459L180,592L195,457Z" fill="#95b0d4" stroke="#95b0d4" stroke-width="1.51"/><path d="M225,60L296,201L314,55Z" fill="#dedcec" stroke="#dedcec" stroke-width="1.51"/><path d="M543,811L706,843L688,711Z" fill="#3a6c90" stroke="#3a6c90" stroke-width="1.51"/><path d="M977,93L956,-40L829,48Z" fill="#97afd5" stroke="#97afd5" stroke-width="1.51"/><path d="M1054,162L956,131L946,225Z" fill="#809cc5" stroke="#809cc5" stroke-width="1.51"/><path d="M262,-9L225,60L314,55Z" fill="#e8e4f0" stroke="#e8e4f0" stroke-width="1.51"/><path d="M754,864L832,800L730,735Z" fill="#1d628a" stroke="#1d628a" stroke-width="1.51"/><path d="M1069,264L1054,162L946,225Z" fill="#7494be" stroke="#7494be" stroke-width="1.51"/><path d="M435,902L395,817L386,911Z" fill="#627b99" stroke="#627b99" stroke-width="1.51"/><path d="M307,708L395,817L346,704Z" fill="#6a7e9b" stroke="#6a7e9b" stroke-width="1.51"/><path d="M543,811L669,944L706,843Z" fill="#3b6c90" stroke="#3b6c90" stroke-width="1.51"/><path d="M349,-15L262,-9L314,55Z" fill="#e6e3f0" stroke="#e6e3f0" stroke-width="1.51"/><path d="M535,-131L443,-102L533,-26Z" fill="#cdd7ea" stroke="#cdd7ea" stroke-width="1.51"/><path d="M395,817L500,853L446,731Z" fill="#5c7897" stroke="#5c7897" stroke-width="1.51"/><path d="M131,341L110,459L195,457Z" fill="#a4c0dc" stroke="#a4c0dc" stroke-width="1.51"/><path d="M92,155L110,303L171,287Z" fill="#d0d6e9" stroke="#d0d6e9" stroke-width="1.51"/><path d="M838,-36L784,-101L764,-60Z" fill="#a4c0dd" stroke="#a4c0dd" stroke-width="1.51"/><path d="M764,-60L784,-101L704,-47Z" fill="#a9c4de" stroke="#a9c4de" stroke-width="1.51"/><path d="M655,-80L535,-131L533,-26Z" fill="#c3d2e7" stroke="#c3d2e7" stroke-width="1.51"/><path d="M835,-135L784,-101L838,-36Z" fill="#a2bddb" stroke="#a2bddb" stroke-width="1.51"/><path d="M19,399L110,459L131,341Z" fill="#acc5df" stroke="#acc5df" stroke-width="1.51"/><path d="M835,-135L535,-131L655,-80Z" fill="#b4cbe3" stroke="#b4cbe3" stroke-width="1.51"/><path d="M885,736L950,733L931,633Z" fill="#055889" stroke="#055889" stroke-width="1.51"/><path d="M918,866L950,733L885,736Z" fill="#065483" stroke="#065483" stroke-width="1.51"/><path d="M301,-148L262,-9L349,-15Z" fill="#e8e4f0" stroke="#e8e4f0" stroke-width="1.51"/><path d="M66,111L92,155L177,141Z" fill="#e7e3f0" stroke="#e7e3f0" stroke-width="1.51"/><path d="M1069,264L1107,133L1054,162Z" fill="#7993b9" stroke="#7993b9" stroke-width="1.51"/><path d="M1143,447L1119,366L1029,460Z" fill="#2e76a6" stroke="#2e76a6" stroke-width="1.51"/><path d="M1143,447L1029,460L1038,521Z" fill="#1b71a5" stroke="#1b71a5" stroke-width="1.51"/><path d="M1029,852L1068,709L950,733Z" fill="#034d79" stroke="#034d79" stroke-width="1.51"/><path d="M706,843L754,864L730,735Z" fill="#29658c" stroke="#29658c" stroke-width="1.51"/><path d="M769,920L754,864L669,944Z" fill="#28658c" stroke="#28658c" stroke-width="1.51"/><path d="M1079,-1L956,-40L977,93Z" fill="#95a9cc" stroke="#95a9cc" stroke-width="1.51"/><path d="M1079,-1L977,93L1018,111Z" fill="#8ea4c7" stroke="#8ea4c7" stroke-width="1.51"/><path d="M1187,518L1143,447L1038,521Z" fill="#15689c" stroke="#15689c" stroke-width="1.51"/><path d="M500,853L533,909L543,811Z" fill="#4f7395" stroke="#4f7395" stroke-width="1.51"/><path d="M435,902L533,909L500,853Z" fill="#567696" stroke="#567696" stroke-width="1.51"/><path d="M784,-101L835,-135L655,-80Z" fill="#a8c4df" stroke="#a8c4df" stroke-width="1.51"/><path d="M925,-102L835,-135L838,-36Z" fill="#9fb8d9" stroke="#9fb8d9" stroke-width="1.51"/><path d="M153,12L177,141L225,60Z" fill="#ebe6f2" stroke="#ebe6f2" stroke-width="1.51"/><path d="M177,141L92,155L171,287Z" fill="#dbdbeb" stroke="#dbdbeb" stroke-width="1.51"/><path d="M52,589L180,592L110,459Z" fill="#93aad1" stroke="#93aad1" stroke-width="1.51"/><path d="M1176,297L1069,264L1119,366Z" fill="#5681aa" stroke="#5681aa" stroke-width="1.51"/><path d="M1176,297L1107,133L1069,264Z" fill="#6c8ab0" stroke="#6c8ab0" stroke-width="1.51"/><path d="M1054,162L1107,133L1018,111Z" fill="#839abf" stroke="#839abf" stroke-width="1.51"/><path d="M395,817L435,902L500,853Z" fill="#5c7898" stroke="#5c7898" stroke-width="1.51"/><path d="M282,844L395,817L307,708Z" fill="#6c7f9c" stroke="#6c7f9c" stroke-width="1.51"/><path d="M1014,-84L925,-102L956,-40Z" fill="#99aed1" stroke="#99aed1" stroke-width="1.51"/><path d="M956,-40L925,-102L838,-36Z" fill="#9cb4d7" stroke="#9cb4d7" stroke-width="1.51"/><path d="M1068,709L1080,681L931,633Z" fill="#045586" stroke="#045586" stroke-width="1.51"/><path d="M1068,709L931,633L950,733Z" fill="#045585" stroke="#045585" stroke-width="1.51"/><path d="M262,-9L153,12L225,60Z" fill="#eee9f3" stroke="#eee9f3" stroke-width="1.51"/><path d="M166,-80L153,12L262,-9Z" fill="#f2ecf5" stroke="#f2ecf5" stroke-width="1.51"/><path d="M149,768L223,615L180,592Z" fill="#8395b5" stroke="#8395b5" stroke-width="1.51"/><path d="M149,768L286,679L223,615Z" fill="#7b8daa" stroke="#7b8daa" stroke-width="1.51"/><path d="M918,866L885,736L832,800Z" fill="#0e5885" stroke="#0e5885" stroke-width="1.51"/><path d="M1274,381L1176,297L1119,366Z" fill="#46759b" stroke="#46759b" stroke-width="1.51"/><path d="M443,-102L354,-152L349,-15Z" fill="#dedfee" stroke="#dedfee" stroke-width="1.51"/><path d="M535,-131L354,-152L443,-102Z" fill="#d6dbeb" stroke="#d6dbeb" stroke-width="1.51"/><path d="M835,-135L354,-152L535,-131Z" fill="#c3d2e7" stroke="#c3d2e7" stroke-width="1.51"/><path d="M754,864L769,920L832,800Z" fill="#1b618a" stroke="#1b618a" stroke-width="1.51"/><path d="M669,944L754,864L706,843Z" fill="#2d678d" stroke="#2d678d" stroke-width="1.51"/><path d="M52,589L81,614L180,592Z" fill="#8fa4c7" stroke="#8fa4c7" stroke-width="1.51"/><path d="M19,399L131,341L110,303Z" fill="#b9cde4" stroke="#b9cde4" stroke-width="1.51"/><path d="M533,909L669,944L543,811Z" fill="#467093" stroke="#467093" stroke-width="1.51"/><path d="M289,964L669,944L533,909Z" fill="#547596" stroke="#547596" stroke-width="1.51"/><path d="M435,902L289,964L533,909Z" fill="#607a98" stroke="#607a98" stroke-width="1.51"/><path d="M282,844L386,911L395,817Z" fill="#697d9b" stroke="#697d9b" stroke-width="1.51"/><path d="M-16,265L19,399L110,303Z" fill="#c3d2e7" stroke="#c3d2e7" stroke-width="1.51"/><path d="M769,920L918,866L832,800Z" fill="#145c87" stroke="#145c87" stroke-width="1.51"/><path d="M81,614L149,768L180,592Z" fill="#8698b6" stroke="#8698b6" stroke-width="1.51"/><path d="M9,530L52,589L110,459Z" fill="#98b1d5" stroke="#98b1d5" stroke-width="1.51"/><path d="M92,155L-16,265L110,303Z" fill="#d6daeb" stroke="#d6daeb" stroke-width="1.51"/><path d="M153,12L66,111L177,141Z" fill="#eee8f3" stroke="#eee8f3" stroke-width="1.51"/><path d="M1068,709L1110,685L1080,681Z" fill="#044e7a" stroke="#044e7a" stroke-width="1.51"/><path d="M1080,681L1110,685L1038,521Z" fill="#045a8e" stroke="#045a8e" stroke-width="1.51"/><path d="M1143,447L1261,431L1119,366Z" fill="#2f6f99" stroke="#2f6f99" stroke-width="1.51"/><path d="M1142,737L1110,685L1068,709Z" fill="#034871" stroke="#034871" stroke-width="1.51"/><path d="M354,-152L301,-148L349,-15Z" fill="#e4e2ef" stroke="#e4e2ef" stroke-width="1.51"/><path d="M1107,133L1079,-1L1018,111Z" fill="#8b9fc1" stroke="#8b9fc1" stroke-width="1.51"/><path d="M1152,72L1079,-1L1107,133Z" fill="#899cba" stroke="#899cba" stroke-width="1.51"/><path d="M1110,685L1187,518L1038,521Z" fill="#055d93" stroke="#055d93" stroke-width="1.51"/><path d="M66,778L149,768L81,614Z" fill="#808da3" stroke="#808da3" stroke-width="1.51"/><path d="M282,844L289,964L386,911Z" fill="#6e809c" stroke="#6e809c" stroke-width="1.51"/><path d="M1079,-1L1014,-84L956,-40Z" fill="#96aacb" stroke="#96aacb" stroke-width="1.51"/><path d="M925,-102L1144,-122L835,-135Z" fill="#98aed1" stroke="#98aed1" stroke-width="1.51"/><path d="M19,399L9,530L110,459Z" fill="#a1bddb" stroke="#a1bddb" stroke-width="1.51"/><path d="M-13,654L66,778L81,614Z" fill="#8997b1" stroke="#8997b1" stroke-width="1.51"/><path d="M1079,-1L1119,-56L1014,-84Z" fill="#93a6c5" stroke="#93a6c5" stroke-width="1.51"/><path d="M1251,158L1152,72L1107,133Z" fill="#7d8fad" stroke="#7d8fad" stroke-width="1.51"/><path d="M19,399L-16,420L9,530Z" fill="#a5c2de" stroke="#a5c2de" stroke-width="1.51"/><path d="M-84,322L-16,420L19,399Z" fill="#b7cce4" stroke="#b7cce4" stroke-width="1.51"/><path d="M66,778L169,814L149,768Z" fill="#7e8ca3" stroke="#7e8ca3" stroke-width="1.51"/><path d="M149,768L169,814L307,708Z" fill="#7887a0" stroke="#7887a0" stroke-width="1.51"/><path d="M301,-148L166,-80L262,-9Z" fill="#ede8f3" stroke="#ede8f3" stroke-width="1.51"/><path d="M153,12L29,-47L66,111Z" fill="#f7f0f7" stroke="#f7f0f7" stroke-width="1.51"/><path d="M-20,171L92,155L66,111Z" fill="#eae5f2" stroke="#eae5f2" stroke-width="1.51"/><path d="M-20,171L-16,265L92,155Z" fill="#e2e1ef" stroke="#e2e1ef" stroke-width="1.51"/><path d="M1045,911L1029,852L994,949Z" fill="#034d79" stroke="#034d79" stroke-width="1.51"/><path d="M918,866L1029,852L950,733Z" fill="#03517f" stroke="#03517f" stroke-width="1.51"/><path d="M1187,518L1261,431L1143,447Z" fill="#1b6490" stroke="#1b6490" stroke-width="1.51"/><path d="M1176,297L1242,251L1107,133Z" fill="#6883a5" stroke="#6883a5" stroke-width="1.51"/><path d="M1223,646L1235,513L1187,518Z" fill="#035383" stroke="#035383" stroke-width="1.51"/><path d="M1223,646L1187,518L1110,685Z" fill="#045180" stroke="#045180" stroke-width="1.51"/><path d="M1274,381L1242,251L1176,297Z" fill="#4f7496" stroke="#4f7496" stroke-width="1.51"/><path d="M769,920L871,959L918,866Z" fill="#125b86" stroke="#125b86" stroke-width="1.51"/><path d="M669,944L871,959L769,920Z" fill="#1e638b" stroke="#1e638b" stroke-width="1.51"/><path d="M1029,852L1142,737L1068,709Z" fill="#034972" stroke="#034972" stroke-width="1.51"/><path d="M-16,265L-84,322L19,399Z" fill="#c4d3e7" stroke="#c4d3e7" stroke-width="1.51"/><path d="M-37,101L-20,171L66,111Z" fill="#efeaf4" stroke="#efeaf4" stroke-width="1.51"/><path d="M1235,513L1261,431L1187,518Z" fill="#155e89" stroke="#155e89" stroke-width="1.51"/><path d="M166,-80L93,-58L153,12Z" fill="#f6f0f7" stroke="#f6f0f7" stroke-width="1.51"/><path d="M110,-133L93,-58L166,-80Z" fill="#f7f0f7" stroke="#f7f0f7" stroke-width="1.51"/><path d="M1152,72L1119,-56L1079,-1Z" fill="#8fa0bd" stroke="#8fa0bd" stroke-width="1.51"/><path d="M1014,-84L1144,-122L925,-102Z" fill="#95a9ca" stroke="#95a9ca" stroke-width="1.51"/><path d="M1212,-32L1119,-56L1152,72Z" fill="#8c9bb5" stroke="#8c9bb5" stroke-width="1.51"/><path d="M1261,431L1274,381L1119,366Z" fill="#356c93" stroke="#356c93" stroke-width="1.51"/><path d="M168,952L289,964L282,844Z" fill="#74849f" stroke="#74849f" stroke-width="1.51"/><path d="M386,911L289,964L435,902Z" fill="#677d9a" stroke="#677d9a" stroke-width="1.51"/><path d="M669,944L289,964L871,959Z" fill="#416e92" stroke="#416e92" stroke-width="1.51"/><path d="M169,814L168,952L282,844Z" fill="#7887a0" stroke="#7887a0" stroke-width="1.51"/><path d="M-13,654L81,614L52,589Z" fill="#91a5c4" stroke="#91a5c4" stroke-width="1.51"/><path d="M1142,737L1223,646L1110,685Z" fill="#03466e" stroke="#03466e" stroke-width="1.51"/><path d="M1358,477L1274,381L1261,431Z" fill="#26658c" stroke="#26658c" stroke-width="1.51"/><path d="M1338,336L1242,251L1274,381Z" fill="#4b7194" stroke="#4b7194" stroke-width="1.51"/><path d="M1242,251L1251,158L1107,133Z" fill="#7285a3" stroke="#7285a3" stroke-width="1.51"/><path d="M1315,181L1251,158L1242,251Z" fill="#6b7e9b" stroke="#6b7e9b" stroke-width="1.51"/><path d="M-131,443L9,530L-16,420Z" fill="#a4c0dc" stroke="#a4c0dc" stroke-width="1.51"/><path d="M-131,567L-13,654L9,530Z" fill="#97abcd" stroke="#97abcd" stroke-width="1.51"/><path d="M9,530L-13,654L52,589Z" fill="#95a9cb" stroke="#95a9cb" stroke-width="1.51"/><path d="M-118,236L-84,322L-16,265Z" fill="#d2d9ea" stroke="#d2d9ea" stroke-width="1.51"/><path d="M-60,36L-37,101L66,111Z" fill="#f6eff7" stroke="#f6eff7" stroke-width="1.51"/><path d="M-20,171L-118,236L-16,265Z" fill="#dedfee" stroke="#dedfee" stroke-width="1.51"/><path d="M1142,737L1281,765L1223,646Z" fill="#023b5d" stroke="#023b5d" stroke-width="1.51"/><path d="M1029,852L1150,876L1142,737Z" fill="#03466e" stroke="#03466e" stroke-width="1.51"/><path d="M994,949L1029,852L918,866Z" fill="#03507d" stroke="#03507d" stroke-width="1.51"/><path d="M871,959L994,949L918,866Z" fill="#045383" stroke="#045383" stroke-width="1.51"/><path d="M93,-58L29,-47L153,12Z" fill="#f9f2f8" stroke="#f9f2f8" stroke-width="1.51"/><path d="M301,-148L110,-133L166,-80Z" fill="#f2ecf5" stroke="#f2ecf5" stroke-width="1.51"/><path d="M9,-149L29,-47L93,-58Z" fill="#fcf4f9" stroke="#fcf4f9" stroke-width="1.51"/><path d="M-3,807L100,877L66,778Z" fill="#828fa5" stroke="#828fa5" stroke-width="1.51"/><path d="M66,778L100,877L169,814Z" fill="#7f8ca3" stroke="#7f8ca3" stroke-width="1.51"/><path d="M1364,109L1248,37L1251,158Z" fill="#7a89a1" stroke="#7a89a1" stroke-width="1.51"/><path d="M1251,158L1248,37L1152,72Z" fill="#7e8da6" stroke="#7e8da6" stroke-width="1.51"/><path d="M1338,336L1320,260L1242,251Z" fill="#567696" stroke="#567696" stroke-width="1.51"/><path d="M1338,336L1274,381L1358,477Z" fill="#32698e" stroke="#32698e" stroke-width="1.51"/><path d="M1248,37L1212,-32L1152,72Z" fill="#8694ab" stroke="#8694ab" stroke-width="1.51"/><path d="M1119,-56L1144,-122L1014,-84Z" fill="#92a4c2" stroke="#92a4c2" stroke-width="1.51"/><path d="M-13,654L-18,744L66,778Z" fill="#8591a6" stroke="#8591a6" stroke-width="1.51"/><path d="M-74,763L-18,744L-119,682Z" fill="#8591a6" stroke="#8591a6" stroke-width="1.51"/><path d="M1212,-32L1144,-122L1119,-56Z" fill="#8c9cb5" stroke="#8c9cb5" stroke-width="1.51"/><path d="M100,877L168,952L169,814Z" fill="#7d8ba2" stroke="#7d8ba2" stroke-width="1.51"/><path d="M-60,36L-90,140L-37,101Z" fill="#f5eef6" stroke="#f5eef6" stroke-width="1.51"/><path d="M-37,101L-90,140L-20,171Z" fill="#eee9f3" stroke="#eee9f3" stroke-width="1.51"/><path d="M-90,140L-118,236L-20,171Z" fill="#e7e3f0" stroke="#e7e3f0" stroke-width="1.51"/><path d="M-84,322L-131,443L-16,420Z" fill="#b3cae2" stroke="#b3cae2" stroke-width="1.51"/><path d="M1358,477L1261,431L1235,513Z" fill="#175e88" stroke="#175e88" stroke-width="1.51"/><path d="M1364,109L1315,181L1320,260Z" fill="#6e809c" stroke="#6e809c" stroke-width="1.51"/><path d="M1320,260L1315,181L1242,251Z" fill="#637b99" stroke="#637b99" stroke-width="1.51"/><path d="M-118,236L-131,443L-84,322Z" fill="#c3d2e7" stroke="#c3d2e7" stroke-width="1.51"/><path d="M29,-47L-60,36L66,111Z" fill="#fbf3f9" stroke="#fbf3f9" stroke-width="1.51"/><path d="M-90,140L-111,-133L-118,236Z" fill="#f6f0f7" stroke="#f6f0f7" stroke-width="1.51"/><path d="M-73,-65L-60,36L29,-47Z" fill="#fff7fb" stroke="#fff7fb" stroke-width="1.51"/><path d="M1342,585L1358,477L1235,513Z" fill="#095684" stroke="#095684" stroke-width="1.51"/><path d="M1045,911L1150,876L1029,852Z" fill="#034973" stroke="#034973" stroke-width="1.51"/><path d="M1121,929L1150,876L1045,911Z" fill="#03466f" stroke="#03466f" stroke-width="1.51"/><path d="M100,877L88,912L168,952Z" fill="#7e8ca3" stroke="#7e8ca3" stroke-width="1.51"/><path d="M-18,744L-3,807L66,778Z" fill="#8490a6" stroke="#8490a6" stroke-width="1.51"/><path d="M-74,763L-3,807L-18,744Z" fill="#8591a6" stroke="#8591a6" stroke-width="1.51"/><path d="M3,927L88,912L100,877Z" fill="#828ea4" stroke="#828ea4" stroke-width="1.51"/><path d="M1342,585L1235,513L1223,646Z" fill="#034e7b" stroke="#034e7b" stroke-width="1.51"/><path d="M-131,443L-131,567L9,530Z" fill="#9eb6d8" stroke="#9eb6d8" stroke-width="1.51"/><path d="M994,949L1121,929L1045,911Z" fill="#034b75" stroke="#034b75" stroke-width="1.51"/><path d="M1281,765L1142,737L1150,876Z" fill="#023d60" stroke="#023d60" stroke-width="1.51"/><path d="M1354,631L1342,585L1223,646Z" fill="#034a74" stroke="#034a74" stroke-width="1.51"/><path d="M1266,880L1281,765L1150,876Z" fill="#023959" stroke="#023959" stroke-width="1.51"/><path d="M-3,807L3,927L100,877Z" fill="#8490a5" stroke="#8490a5" stroke-width="1.51"/><path d="M-119,682L-18,744L-13,654Z" fill="#8997af" stroke="#8997af" stroke-width="1.51"/><path d="M110,-133L9,-149L93,-58Z" fill="#faf3f9" stroke="#faf3f9" stroke-width="1.51"/><path d="M301,-148L9,-149L110,-133Z" fill="#f6f0f7" stroke="#f6f0f7" stroke-width="1.51"/><path d="M354,-152L9,-149L301,-148Z" fill="#efeaf4" stroke="#efeaf4" stroke-width="1.51"/><path d="M-131,567L-119,682L-13,654Z" fill="#92a4c2" stroke="#92a4c2" stroke-width="1.51"/><path d="M1342,585L1354,631L1358,477Z" fill="#03507e" stroke="#03507e" stroke-width="1.51"/><path d="M1281,765L1354,631L1223,646Z" fill="#023f63" stroke="#023f63" stroke-width="1.51"/><path d="M1338,336L1364,109L1320,260Z" fill="#627b99" stroke="#627b99" stroke-width="1.51"/><path d="M1315,181L1364,109L1251,158Z" fill="#74839e" stroke="#74839e" stroke-width="1.51"/><path d="M1319,-135L1248,-141L1212,-32Z" fill="#8591a6" stroke="#8591a6" stroke-width="1.51"/><path d="M1212,-32L1248,-141L1144,-122Z" fill="#8996ad" stroke="#8996ad" stroke-width="1.51"/><path d="M1358,477L1364,109L1338,336Z" fill="#4f7395" stroke="#4f7395" stroke-width="1.51"/><path d="M9,-149L-73,-65L29,-47Z" fill="#fff7fb" stroke="#fff7fb" stroke-width="1.51"/><path d="M-60,36L-111,-133L-90,140Z" fill="#fef5fb" stroke="#fef5fb" stroke-width="1.51"/><path d="M1374,11L1212,-32L1248,37Z" fill="#8591a6" stroke="#8591a6" stroke-width="1.51"/><path d="M1144,-122L1248,-141L835,-135Z" fill="#93a5c4" stroke="#93a5c4" stroke-width="1.51"/><path d="M835,-135L1248,-141L354,-152Z" fill="#a3bedc" stroke="#a3bedc" stroke-width="1.51"/><path d="M-126,809L-3,807L-74,763Z" fill="#8591a6" stroke="#8591a6" stroke-width="1.51"/><path d="M-81,901L3,927L-3,807Z" fill="#8591a6" stroke="#8591a6" stroke-width="1.51"/><path d="M88,912L3,927L168,952Z" fill="#808da4" stroke="#808da4" stroke-width="1.51"/><path d="M1281,765L1364,770L1354,631Z" fill="#023858" stroke="#023858" stroke-width="1.51"/><path d="M1233,952L1266,880L1150,876Z" fill="#023a5c" stroke="#023a5c" stroke-width="1.51"/><path d="M1364,770L1374,11L1358,477Z" fill="#2a668d" stroke="#2a668d" stroke-width="1.51"/><path d="M1358,477L1374,11L1364,109Z" fill="#6a7e9b" stroke="#6a7e9b" stroke-width="1.51"/><path d="M1364,109L1374,11L1248,37Z" fill="#808da4" stroke="#808da4" stroke-width="1.51"/><path d="M1266,880L1300,859L1281,765Z" fill="#023858" stroke="#023858" stroke-width="1.51"/><path d="M-119,682L-126,809L-74,763Z" fill="#8591a6" stroke="#8591a6" stroke-width="1.51"/><path d="M-131,567L-126,809L-119,682Z" fill="#8a99b1" stroke="#8a99b1" stroke-width="1.51"/><path d="M1266,880L1321,929L1300,859Z" fill="#023858" stroke="#023858" stroke-width="1.51"/><path d="M1121,929L1233,952L1150,876Z" fill="#023f64" stroke="#023f64" stroke-width="1.51"/><path d="M994,949L1233,952L1121,929Z" fill="#03456d" stroke="#03456d" stroke-width="1.51"/><path d="M871,959L1233,952L994,949Z" fill="#034c78" stroke="#034c78" stroke-width="1.51"/><path d="M1300,859L1364,770L1281,765Z" fill="#023858" stroke="#023858" stroke-width="1.51"/><path d="M1354,631L1364,770L1358,477Z" fill="#034973" stroke="#034973" stroke-width="1.51"/><path d="M-126,809L-81,901L-3,807Z" fill="#8591a6" stroke="#8591a6" stroke-width="1.51"/><path d="M9,-149L-111,-133L-73,-65Z" fill="#fff7fb" stroke="#fff7fb" stroke-width="1.51"/><path d="M-73,-65L-111,-133L-60,36Z" fill="#fff7fb" stroke="#fff7fb" stroke-width="1.51"/><path d="M-118,236L-111,-133L-131,443Z" fill="#e7e4f0" stroke="#e7e4f0" stroke-width="1.51"/><path d="M1374,11L1319,-135L1212,-32Z" fill="#8591a6" stroke="#8591a6" stroke-width="1.51"/><path d="M1300,859L1321,929L1364,770Z" fill="#023858" stroke="#023858" stroke-width="1.51"/><path d="M1233,952L1321,929L1266,880Z" fill="#023858" stroke="#023858" stroke-width="1.51"/></svg>